<?xml version="1.0" encoding="UTF-8"?>
<svg version="1.1" xmlns="http://www.w3.org/2000/svg" width="400" height="400">
<path d="M0 0 C132 0 264 0 400 0 C400 132 400 264 400 400 C268 400 136 400 0 400 C0 268 0 136 0 0 Z " fill="#FDFEFE" transform="translate(0,0)"/>
<path d="M0 0 C57.42 0 114.84 0 174 0 C174 59.73 174 119.46 174 181 C140.01 181 106.02 181 71 181 C69.35 176.05 67.7 171.1 66 166 C64.62610524 162.948819 63.29151899 160.09453509 61.6875 157.1875 C61.30215088 156.4759375 60.91680176 155.764375 60.51977539 155.03125 C57.25796427 149.16119285 53.46383488 144.01957336 49 139 C48.09894531 137.88625 48.09894531 137.88625 47.1796875 136.75 C34.54978371 121.53070171 17.87611168 114.44837987 0 107 C0 71.69 0 36.38 0 0 Z " fill="#004AAC" transform="translate(226,0)"/>
<path d="M0 0 C57.42 0 114.84 0 174 0 C174 35.31 174 70.62 174 107 C169.71 108.32 165.42 109.64 161 111 C135.03743429 121.61744803 117.12763373 141.08646893 105.47265625 166.171875 C103.61903822 170.99029852 102.3583869 176.01924805 101 181 C67.67 181 34.34 181 0 181 C0 121.27 0 61.54 0 0 Z " fill="#000000" transform="translate(0,0)"/>
<path d="M0 0 C33.99 0 67.98 0 103 0 C103 56.76 103 113.52 103 172 C45.58 172 -11.84 172 -71 172 C-71 139.33 -71 106.66 -71 73 C-67.04 71.68 -63.08 70.36 -59 69 C-49.87018706 65.10708484 -41.71868022 60.22398874 -34 54 C-33.15824219 53.32324219 -32.31648438 52.64648438 -31.44921875 51.94921875 C-14.85812405 37.83517707 -7.21710882 20.44847499 0 0 Z " fill="#000000" transform="translate(297,228)"/>
<path d="M0 0 C33.33 0 66.66 0 101 0 C102.98 5.94 104.96 11.88 107 18 C112.14430631 28.06494712 117.3989026 36.65212812 125 45 C125.67289062 45.76570313 126.34578125 46.53140625 127.0390625 47.3203125 C139.63773857 60.86270963 156.56120674 68.76836202 174 74 C174 106.34 174 138.68 174 172 C116.58 172 59.16 172 0 172 C0 115.24 0 58.48 0 0 Z " fill="#004AAC" transform="translate(0,228)"/>
<path d="M0 0 C24.42 0 48.84 0 74 0 C74 24.75 74 49.5 74 75 C52.19452094 71.88493156 32.05446303 56.90780657 18.59375 39.97265625 C14.46422202 34.25212863 10.92258754 28.32339513 7.6875 22.0625 C7.37401611 21.46735596 7.06053223 20.87221191 6.73754883 20.2590332 C3.45746609 13.61907956 2.12228495 7.42799732 0 0 Z " fill="#FEDD5B" transform="translate(100,227)"/>
<path d="M0 0 C0 24.42 0 48.84 0 74 C-24.09 74 -48.18 74 -73 74 C-72.24377934 67.95023472 -71.42485913 63.7231242 -69 58.375 C-68.69239746 57.68841309 -68.38479492 57.00182617 -68.06787109 56.29443359 C-62.77384463 44.85080701 -55.80136085 35.04539119 -47 26 C-46.12408203 25.04867187 -46.12408203 25.04867187 -45.23046875 24.078125 C-40.68310886 19.26452624 -35.53570046 15.60444857 -30 12 C-29.19433594 11.47277344 -28.38867188 10.94554688 -27.55859375 10.40234375 C-19.35884122 5.25611062 -9.90316165 0 0 0 Z " fill="#FEDD58" transform="translate(174,107)"/>
<path d="M0 0 C57.42 0 114.84 0 174 0 C174 0.33 174 0.66 174 1 C140.01 1 106.02 1 71 1 C70.01 4.96 69.02 8.92 68 13 C66.82130021 15.81094275 65.6690674 18.39463941 64.25 21.0625 C63.72067871 22.08017456 63.72067871 22.08017456 63.18066406 23.1184082 C62.14064784 25.09074804 61.07712032 27.04771941 60 29 C59.4534375 29.99257813 58.906875 30.98515625 58.34375 32.0078125 C46.48689958 51.94359531 26.13211902 67.32962524 4 74 C2.68 74 1.36 74 0 74 C0 49.58 0 25.16 0 0 Z " fill="#FADA5B" transform="translate(226,227)"/>
<path d="M0 0 C17.60948063 5.86982688 17.60948063 5.86982688 23.0625 9.0625 C23.71822998 9.44116211 24.37395996 9.81982422 25.04956055 10.20996094 C42.20637834 20.49290144 54.94593165 35.34456672 64 53 C64.5053125 53.98226562 65.010625 54.96453125 65.53125 55.9765625 C68.5619966 62.23188253 69.55061214 66.75306069 71 74 C47.57 74 24.14 74 0 74 C0 49.58 0 25.16 0 0 Z " fill="#FDDD59" transform="translate(226,107)"/>
<path d="M0 0 C0.66 0.33 1.32 0.66 2 1 C2.6328125 2.92578125 2.6328125 2.92578125 3.125 5.3125 C3.29257813 6.09238281 3.46015625 6.87226562 3.6328125 7.67578125 C4 10 4 10 4 14 C5.794375 13.9690625 5.794375 13.9690625 7.625 13.9375 C11.18004869 13.93117429 14.50555624 14.30111125 18 15 C14.72291137 18.67033927 11.28477792 20.69281189 7 23 C7.66 27.62 8.32 32.24 9 37 C7.046875 35.50260417 5.09375 34.00520833 3.140625 32.5078125 C2.43421875 32.01023438 1.7278125 31.51265625 1 31 C0.35804687 30.54496094 -0.28390625 30.08992188 -0.9453125 29.62109375 C-3.11523066 28.71753117 -3.11523066 28.71753117 -5.5078125 30.15234375 C-6.37148438 30.74144531 -7.23515625 31.33054688 -8.125 31.9375 C-9.71554145 33.01123347 -11.33505508 34.0457023 -13 35 C-13.66 34.67 -14.32 34.34 -15 34 C-14.61585937 33.25234375 -14.23171875 32.5046875 -13.8359375 31.734375 C-13.11277344 30.25710937 -13.11277344 30.25710937 -12.375 28.75 C-11.88773438 27.77546875 -11.40046875 26.8009375 -10.8984375 25.796875 C-9.74929767 23.11348187 -9.74929767 23.11348187 -10.625 20.83984375 C-12.12466842 18.83318515 -13.67044137 17.37695125 -15.625 15.8125 C-16.76510839 14.89343303 -17.89462113 13.96055651 -19 13 C-19 12.67 -19 12.34 -19 12 C-17.22925083 11.97294271 -15.45838289 11.95357805 -13.6875 11.9375 C-12.70136719 11.92589844 -11.71523438 11.91429688 -10.69921875 11.90234375 C-8 12 -8 12 -5 13 C-4.731875 12.154375 -4.46375 11.30875 -4.1875 10.4375 C-2.9521405 6.86145933 -1.523012 3.46139092 0 0 Z " fill="#F3D455" transform="translate(67,108)"/>
<path d="M0 0 C2.18361399 2.18361399 3.91194537 4.09378591 5.6875 6.5625 C6.34298828 7.46162109 6.34298828 7.46162109 7.01171875 8.37890625 C8 10 8 10 8 12 C8.83144531 11.69964844 9.66289062 11.39929687 10.51953125 11.08984375 C11.60621094 10.70957031 12.69289062 10.32929687 13.8125 9.9375 C14.89144531 9.55464844 15.97039062 9.17179687 17.08203125 8.77734375 C20 8 20 8 23 9 C20.36 12.3 17.72 15.6 15 19 C17.15078722 22.85658398 19.23455278 26.54319097 22 30 C21.67 30.66 21.34 31.32 21 32 C20.22914063 31.71125 19.45828125 31.4225 18.6640625 31.125 C17.66117188 30.75375 16.65828125 30.3825 15.625 30 C14.62726563 29.62875 13.62953125 29.2575 12.6015625 28.875 C10.14151939 27.89373723 10.14151939 27.89373723 8 28 C6.22386212 30.01881486 6.22386212 30.01881486 4.4375 32.5 C3.31245447 34.01565385 2.17162248 35.52005581 1 37 C0.67 37 0.34 37 0 37 C0 32.71 0 28.42 0 24 C-1.753125 23.54625 -3.50625 23.0925 -5.3125 22.625 C-8.7850073 21.72623341 -10.98509443 21.00993705 -14 19 C-12.60550891 18.516941 -11.20933293 18.03874483 -9.8125 17.5625 C-9.03519531 17.29566406 -8.25789063 17.02882813 -7.45703125 16.75390625 C-5.01585787 16.00486577 -2.50391792 15.50078358 0 15 C0 10.05 0 5.1 0 0 Z " fill="#F5D555" transform="translate(125,46)"/>
<path d="M0 0 C0.33 0 0.66 0 1 0 C1 4.95 1 9.9 1 15 C2.4025 15.28875 3.805 15.5775 5.25 15.875 C8.46657616 16.53723627 11.11371599 17.42445965 14 19 C14 19.33 14 19.66 14 20 C9.38 20.99 4.76 21.98 0 23 C0 27.95 0 32.9 0 38 C-2.43378763 35.56621237 -3.9424887 33.68941052 -5.6875 30.8125 C-6.12449219 30.09707031 -6.56148437 29.38164062 -7.01171875 28.64453125 C-7.33785156 28.10183594 -7.66398437 27.55914062 -8 27 C-8.67546875 27.15597656 -9.3509375 27.31195313 -10.046875 27.47265625 C-11.38492188 27.76462891 -11.38492188 27.76462891 -12.75 28.0625 C-14.07257813 28.35833984 -14.07257813 28.35833984 -15.421875 28.66015625 C-17.98679028 28.99825872 -19.57091639 28.81158635 -22 28 C-21.47148438 27.40832031 -20.94296875 26.81664062 -20.3984375 26.20703125 C-19.73070313 25.41683594 -19.06296875 24.62664062 -18.375 23.8125 C-17.36566406 22.64654297 -17.36566406 22.64654297 -16.3359375 21.45703125 C-14.68069143 19.07076913 -14.68069143 19.07076913 -15.625 16.46875 C-16.90758156 14.16593311 -18.19769251 11.90358267 -19.625 9.6875 C-20.07101563 8.99011719 -20.51703125 8.29273438 -20.9765625 7.57421875 C-21.31429687 7.05472656 -21.65203125 6.53523438 -22 6 C-17.15311808 6.78175515 -12.6233633 8.39844278 -8 10 C-7.43410156 9.278125 -6.86820313 8.55625 -6.28515625 7.8125 C-5.55167969 6.884375 -4.81820312 5.95625 -4.0625 5 C-3.33160156 4.071875 -2.60070312 3.14375 -1.84765625 2.1875 C-0.93306641 1.1046875 -0.93306641 1.1046875 0 0 Z " fill="#F2D65C" transform="translate(93,290)"/>
<path d="M0 0 C0.66 0 1.32 0 2 0 C3.98 3.63 5.96 7.26 8 11 C14.435 10.505 14.435 10.505 21 10 C19.47005208 11.953125 17.94010417 13.90625 16.41015625 15.859375 C14.95322508 18.07100459 14.19966648 19.36440241 14 22 C14.95973949 24.64469024 14.95973949 24.64469024 16.4375 27.25 C17.14712891 28.58804687 17.14712891 28.58804687 17.87109375 29.953125 C18.24363281 30.62859375 18.61617187 31.3040625 19 32 C15.83656476 31.45937909 13.79521498 30.88715927 10.9375 29.3125 C8.19066355 27.68011952 8.19066355 27.68011952 6.05078125 28.69140625 C3.79926312 30.12808925 2.10115299 31.70264882 0.25 33.625 C-0.36359375 34.25664062 -0.9771875 34.88828125 -1.609375 35.5390625 C-2.06828125 36.02117187 -2.5271875 36.50328125 -3 37 C-4.57344039 32.27967883 -3.52113456 27.92182643 -3 23 C-6.96 21.02 -10.92 19.04 -15 17 C-15 16.67 -15 16.34 -15 16 C-8.07 15.01 -8.07 15.01 -1 14 C-0.67 9.38 -0.34 4.76 0 0 Z " fill="#F3D75C" transform="translate(120,314)"/>
<path d="M0 0 C4.04420651 1.77945087 7.46078487 4.39529673 11 7 C15.02784753 4.70965533 19.03712501 2.40174242 23 0 C22.09276387 4.68738665 21.0452733 9.34193744 20 14 C20.97453125 14.74056641 20.97453125 14.74056641 21.96875 15.49609375 C23.22171875 16.45708984 23.22171875 16.45708984 24.5 17.4375 C25.3353125 18.07558594 26.170625 18.71367188 27.03125 19.37109375 C27.6809375 19.90863281 28.330625 20.44617188 29 21 C29 21.33 29 21.66 29 22 C22.565 22.495 22.565 22.495 16 23 C14.68 26.96 13.36 30.92 12 35 C11.34 35 10.68 35 10 35 C9.49487756 33.39743892 8.99608373 31.79288208 8.5 30.1875 C8.2215625 29.29417969 7.943125 28.40085937 7.65625 27.48046875 C7 25 7 25 7 22 C2.05 22 -2.9 22 -8 22 C-4.72724974 18.72724974 -1.85411644 16.45261955 2 14 C1.2812193 6.95792295 1.2812193 6.95792295 0 0 Z " fill="#F7D756" transform="translate(79,73)"/>
<path d="M0 0 C2.79024052 4.18536078 3.10154594 8.05850265 4 13 C8.95 13 13.9 13 19 13 C15.12038353 16.87961647 12.43416733 19.2157554 8 22 C9.485 28.435 9.485 28.435 11 35 C6.92929234 32.96464617 3.66268474 30.67657731 0 28 C-5.445 31.465 -5.445 31.465 -11 35 C-12 33 -12 33 -11.40625 30.9765625 C-10.8038306 29.41338801 -10.19967333 27.85088212 -9.59375 26.2890625 C-8.91000297 23.65303777 -8.89771256 22.48395648 -10 20 C-11.83785603 18.26675348 -11.83785603 18.26675348 -14.0625 16.8125 C-15.38746868 15.89270628 -16.70365218 14.9597108 -18 14 C-18 13.67 -18 13.34 -18 13 C-13.38 13 -8.76 13 -4 13 C-3.71125 11.5975 -3.4225 10.195 -3.125 8.75 C-2.46276373 5.53342384 -1.57554035 2.88628401 0 0 Z " fill="#F1D65D" transform="translate(330,110)"/>
<path d="M0 0 C3.27275026 3.27275026 5.54738045 6.14588356 8 10 C8.67546875 9.84402344 9.3509375 9.68804687 10.046875 9.52734375 C10.93890625 9.33269531 11.8309375 9.13804688 12.75 8.9375 C13.63171875 8.74027344 14.5134375 8.54304688 15.421875 8.33984375 C17.98679028 8.00174128 19.57091639 8.18841365 22 9 C21.47148437 9.59167969 20.94296875 10.18335937 20.3984375 10.79296875 C19.73070312 11.58316406 19.06296875 12.37335938 18.375 13.1875 C17.70210938 13.96480469 17.02921875 14.74210937 16.3359375 15.54296875 C14.67124538 17.94501404 14.67124538 17.94501404 15.65625 20.6328125 C17.18655752 23.32864494 19.05064343 25.59579356 21 28 C21 28.66 21 29.32 21 30 C19.58318366 29.68817931 18.16655349 29.37551263 16.75 29.0625 C15.96109375 28.88847656 15.1721875 28.71445313 14.359375 28.53515625 C12.23121297 28.052444 10.11467158 27.53836822 8 27 C7.50628906 27.6496875 7.01257813 28.299375 6.50390625 28.96875 C5.86324219 29.8040625 5.22257812 30.639375 4.5625 31.5 C3.92441406 32.3353125 3.28632813 33.170625 2.62890625 34.03125 C1.82259766 35.00578125 1.82259766 35.00578125 1 36 C0.67 36 0.34 36 0 36 C0 31.71 0 27.42 0 23 C-1.77375 22.54625 -3.5475 22.0925 -5.375 21.625 C-10.75 20.25 -10.75 20.25 -13 18 C-11.783125 17.525625 -10.56625 17.05125 -9.3125 16.5625 C-8.62800781 16.29566406 -7.94351562 16.02882813 -7.23828125 15.75390625 C-5 15 -5 15 0 14 C0 9.38 0 4.76 0 0 Z " fill="#F5D85C" transform="translate(301,71)"/>
<path d="M0 0 C0.33 0 0.66 0 1 0 C1.027193 1.58323688 1.04648306 3.16661062 1.0625 4.75 C1.07410156 5.63171875 1.08570313 6.5134375 1.09765625 7.421875 C1.00826198 9.7818838 0.66912821 11.74498524 0 14 C1.0209375 14.1546875 1.0209375 14.1546875 2.0625 14.3125 C5.62915989 15.14725019 8.66222194 16.49472754 12 18 C9.47519307 20.52480693 7.86176966 20.55738633 4.375 21.125 C3.37210937 21.29257813 2.36921875 21.46015625 1.3359375 21.6328125 C0.56507813 21.75398438 -0.20578125 21.87515625 -1 22 C-0.979375 23.19625 -0.95875 24.3925 -0.9375 25.625 C-0.93117429 29.18004869 -1.30111125 32.50555624 -2 36 C-5.27286682 33.2180632 -6.96427697 29.72045933 -9 26 C-13.62 26.33 -18.24 26.66 -23 27 C-20.48852631 22.81421052 -18.13478724 19.64313112 -15 16 C-15.44472656 15.30132812 -15.88945312 14.60265625 -16.34765625 13.8828125 C-16.91355469 12.97273438 -17.47945313 12.06265625 -18.0625 11.125 C-18.63097656 10.22007813 -19.19945312 9.31515625 -19.78515625 8.3828125 C-20.18605469 7.59648438 -20.58695313 6.81015625 -21 6 C-20.67 5.34 -20.34 4.68 -20 4 C-19.39671875 4.28875 -18.7934375 4.5775 -18.171875 4.875 C-16.97304688 5.431875 -16.97304688 5.431875 -15.75 6 C-14.96109375 6.37125 -14.1721875 6.7425 -13.359375 7.125 C-10.7943343 8.23181252 -10.7943343 8.23181252 -7 8 C-5.02912629 6.25821784 -5.02912629 6.25821784 -3.3125 4 C-2.22224159 2.65527014 -1.12153356 1.31875862 0 0 Z " fill="#F4D75C" transform="translate(276,49)"/>
<path d="M0 0 C0.51949219 0.42152344 1.03898437 0.84304687 1.57421875 1.27734375 C2.27160156 1.82519531 2.96898437 2.37304688 3.6875 2.9375 C4.37199219 3.48277344 5.05648437 4.02804688 5.76171875 4.58984375 C8.32966114 6.20769227 9.9630304 6.85185514 13 7 C15.74373213 5.83603078 15.74373213 5.83603078 18.3125 4.0625 C19.19550781 3.49660156 20.07851562 2.93070313 20.98828125 2.34765625 C21.65214844 1.90292969 22.31601563 1.45820313 23 1 C22.50382199 3.70642552 22.00905039 5.97988801 20.875 8.5 C19.76509345 11.67116156 19.70618553 12.87962392 21 16 C22.74798183 17.72707296 24.56732034 19.25376316 26.50390625 20.765625 C26.99761719 21.17296875 27.49132812 21.5803125 28 22 C28 22.33 28 22.66 28 23 C23.71 23 19.42 23 15 23 C14.525625 24.60875 14.05125 26.2175 13.5625 27.875 C12.125 32.75 12.125 32.75 11 35 C10.34 35 9.68 35 9 35 C8.49689942 33.2092015 7.99761372 31.41733089 7.5 29.625 C7.2215625 28.62726563 6.943125 27.62953125 6.65625 26.6015625 C6 24 6 24 6 22 C1.38 22 -3.24 22 -8 22 C0.75 15 0.75 15 3 15 C2.7834375 14.16855469 2.566875 13.33710938 2.34375 12.48046875 C2.0653125 11.39378906 1.786875 10.30710937 1.5 9.1875 C1.2215625 8.10855469 0.943125 7.02960938 0.65625 5.91796875 C0 3 0 3 0 0 Z " fill="#F7D95B" transform="translate(54,251)"/>
<path d="M0 0 C1.953125 1.52994792 3.90625 3.05989583 5.859375 4.58984375 C8.04262218 6.02807775 9.39747788 6.79588062 12 7 C14.13379169 6.0424497 14.13379169 6.0424497 16.125 4.5625 C19.82561308 2 19.82561308 2 22 2 C20.21111111 7.62222222 20.21111111 7.62222222 18.8125 10.125 C17.74245365 12.59433774 18.04801392 13.49988122 19 16 C20.83903422 17.94897621 20.83903422 17.94897621 23.0625 19.6875 C24.388313 20.77564529 25.70463685 21.87577823 27 23 C27 23.33 27 23.66 27 24 C22.38 24 17.76 24 13 24 C11.35 27.63 9.7 31.26 8 35 C5.14768778 30.72153168 5.39774304 27.104369 5 22 C-1.93 21.505 -1.93 21.505 -9 21 C-9 20.34 -9 19.68 -9 19 C-5.78744808 16.78563385 -2.38516696 14.946471 1 13 C0.67 8.71 0.34 4.42 0 0 Z " fill="#F2D354" transform="translate(325,260)"/>
<path d="M0 0 C2.87579981 4.31369972 4 7.80734761 4 13 C8.95 13 13.9 13 19 13 C15 17 15 17 11.75 18.875 C8.70422202 20.73264619 8.70422202 20.73264619 8.5 23.9375 C8.98289034 26.89520335 9.88068019 29.23901112 11 32 C10.67 32.99 10.34 33.98 10 35 C9.40832031 34.47148437 8.81664062 33.94296875 8.20703125 33.3984375 C7.41683594 32.73070312 6.62664062 32.06296875 5.8125 31.375 C4.64654297 30.36566406 4.64654297 30.36566406 3.45703125 29.3359375 C1.06423353 27.67376727 1.06423353 27.67376727 -1.5625 28.65625 C-2.366875 29.0996875 -3.17125 29.543125 -4 30 C-4.66644531 30.35320312 -5.33289063 30.70640625 -6.01953125 31.0703125 C-6.61121094 31.41835938 -7.20289063 31.76640625 -7.8125 32.125 C-8.864375 32.74375 -9.91625 33.3625 -11 34 C-10.68817931 32.58318366 -10.37551263 31.16655349 -10.0625 29.75 C-9.88847656 28.96109375 -9.71445312 28.1721875 -9.53515625 27.359375 C-9.052444 25.23121297 -8.53836822 23.11467158 -8 21 C-8.721875 20.50628906 -9.44375 20.01257813 -10.1875 19.50390625 C-11.5796875 18.54291016 -11.5796875 18.54291016 -13 17.5625 C-13.928125 16.92441406 -14.85625 16.28632813 -15.8125 15.62890625 C-16.8953125 14.82259766 -16.8953125 14.82259766 -18 14 C-18 13.67 -18 13.34 -18 13 C-13.38 13 -8.76 13 -4 13 C-3.71125 11.5975 -3.4225 10.195 -3.125 8.75 C-2.46276373 5.53342384 -1.57554035 2.88628401 0 0 Z " fill="#F2D354" transform="translate(311,294)"/>
<path d="M0 0 C0.33 0 0.66 0 1 0 C1.33 4.29 1.66 8.58 2 13 C7.445 14.98 7.445 14.98 13 17 C13 17.66 13 18.32 13 19 C11.56445975 19.50559908 10.1264798 20.0042749 8.6875 20.5 C7.88699219 20.7784375 7.08648437 21.056875 6.26171875 21.34375 C4 22 4 22 1 22 C1 26.62 1 31.24 1 36 C-2.28788824 32.88983545 -4.83735988 29.98381075 -7 26 C-11.34464536 26.60825035 -15.67551867 27.26167392 -20 28 C-16.25 21.25 -16.25 21.25 -14 19 C-14.3579827 15.83673473 -15.64444028 13.85590916 -17.5625 11.375 C-20 8.21246459 -20 8.21246459 -20 6 C-19.32453125 6.22816406 -18.6490625 6.45632813 -17.953125 6.69140625 C-17.06109375 6.97886719 -16.1690625 7.26632812 -15.25 7.5625 C-14.36828125 7.85253906 -13.4865625 8.14257812 -12.578125 8.44140625 C-9.8230383 9.0383417 -8.55692877 9.15302007 -6 8 C-4.26675348 6.16214397 -4.26675348 6.16214397 -2.8125 3.9375 C-1.89270628 2.61253132 -0.9597108 1.29634782 0 0 Z " fill="#F7D756" transform="translate(277,318)"/>
</svg>
